<svg xmlns="http://www.w3.org/2000/svg" width="1200" height="800"><defs><clipPath id="a"><path d="m-60 116-20-68 38 34 8-44 18 40L0 32l16 46 18-40 8 44 38-34-20 68v34H-60Z"/></clipPath><clipPath id="b"><path d="m-60 116-20-68 38 34 8-44 18 40L0 32l16 46 18-40 8 44 38-34-20 68v34H-60Z"/></clipPath><clipPath id="c"><path d="m-60 116-20-68 38 34 8-44 18 40L0 32l16 46 18-40 8 44 38-34-20 68v34H-60Z"/></clipPath></defs><path fill="#007448" d="M-334.286 280.934h1200v800h-1200z" style="fill:#017147;fill-opacity:1" transform="translate(334.286 -280.934)"/><path fill="#fff" stroke="#000" stroke-width=".19" d="M436.516 394.75c.71 50.253 3.41 89.467 26.98 120.13 28.393 36.937 75.695 63.593 136.54 89.781 60.847-26.188 108.148-52.844 136.54-89.78 23.571-30.664 26.196-69.88 26.981-120.132.815-52.158.866-118.445 0-170.605-50.607 41.333-134.781 27.353-163.941 1.21-40.403 29.893-116.433 41.514-163.1-2.016-.984 52.158-.737 119.254 0 171.412z"/><g fill="#00803e" style="fill:#017147;fill-opacity:1"><path d="M754.14-100.433c5.436-7.444 22.108-21.557 37.678 5.87 29.1-6.352 38.284 9.162 33.754 21.727-4.988 13.84-40.207 21.253-43.19 29.377-1.478 4.214-5.81 7.86-.826 6.147 53.62-16.268 69.06 13.57 30.563 40.953 11.408 35.81-39.286 59.792-45.386-9.324-.539-3.569-5.084-11.295-9.297-5.822-1.487 1.932-13.889 27.087-15.85 60.947-4.534 78.325 1.914 215.822-2.77 233.594-2.324 8.816-5.915-7.24-10.312-5.125 7.1-21.52 1.998-143.604 4.833-223.524 1.552-43.783 14.998-72.484 12-70.713-64.715 49.392-62.317-10.197-38.17-28.298-10.515-14.59 4.376-68.48 44.36 5.996 2.43 3.79-2.755 6.785.15.504 1.483-27.023-9.746-29.719 2.463-62.31z" style="fill:#017147;fill-opacity:1" transform="matrix(.6352 0 0 .66044 131.911 353.188)"/><path d="M646.578 81.183c-2.311-16.758-5.531-32.924-19.138-44.347-22.799-19.139-52.405.288-31.447 33.276-38.737.218-33.885 35.71-25.047 44.21 22.572 21.706 56.472-2.125 62.701 2.583 3.179 2.495 5.993-.857 1.293 1.528-60.988 4.015-50.568 58.48-7.454 52.29 8.37 39.793 58.924 25.474 30.392-38.987-1.299-3.5-.75-11.532 5.146-13.693 23.859-8.746 72.502 72.795 76.79 97.726 1.573 9.147-7.088-24.416-2.652-25.999 4.06-20.786-63.608-86.082-67.365-88.092 74.096-7.503 57.99-65.728 17.392-51.049 9.275-41.78-35.9-44.19-40.248-3.446z" style="fill:#017147;fill-opacity:1" transform="matrix(.6352 0 0 .66044 131.911 353.188)"/><path d="M881.624 96.143c36.974 2.84 26.049 28.135 14.081 34.258-10.68 5.465-46.478-5.905-43.96-3.333-2.98 2.493-4.47-.951-.057.814 43.987 18.808 46.121 72.27 3.257 45.821-3.749 55.176-60.173 30.002-33.441-30.126 1.216-3.246 2.138-2.834-2.95-5.612-12.89-7.04-65.17 40.558-78.392 70.833-3.437 7.87 1.815-12.342-2.35-13.409 9.231-24.168 84.554-71.144 78.902-71.628-69.545-.819-54.487-67.01-15.35-46.88-9.04-33.395 57.197-50.755 36.006 32.08.062 4.626-4.634 3.464.32.193 5.079-15.593 7.685-24.134 16.95-37.122 27.734-21.868 46.78 7.236 26.984 24.111" style="fill:#017147;fill-opacity:1" transform="matrix(.6352 0 0 .66044 131.911 353.188)"/></g><path d="M363.104 632.025c.542 35.494 2.607 63.191 20.632 84.849 21.713 26.089 57.886 44.915 104.416 63.412 46.53-18.497 82.703-37.323 104.415-63.412 18.025-21.658 20.032-49.355 20.633-84.849.624-36.839.663-83.657 0-120.498-38.7 29.193-103.07 19.32-125.37.855-30.897 21.113-89.039 29.32-124.727-1.425-.752 36.84-.563 84.229 0 121.067z" style="fill:#065da4;fill-opacity:1;stroke:#000;stroke-width:3;stroke-miterlimit:4;stroke-dasharray:none;stroke-opacity:1" transform="matrix(.9991 0 0 .99734 -270.424 -41.245)"/><g style="stroke:#000" transform="matrix(.20144 0 0 .17209 193.947 520.763)"><circle cy="-12.7" r="142" clip-path="url(#a)" style="fill:none" transform="matrix(2.06769 0 0 2.19068 -144.249 43.332)"/><g style="fill:#f0b820;fill-opacity:1"><path d="M-329.253 171.963c18.533 34.434 36.559 69.148 54.618 103.845H-6.018c20.083-34.334 35.461-69.347 55.277-103.845l-68.589 57.65-6.35-92.162-72.824 84.711-37.682-94.908-41.493 94.908-66.472-84.711-12.702 92.163z" style="fill:#f0b820;fill-opacity:1;stroke-width:2.21700001"/><path d="M-140.4 302.53c-48.324.152-91.695 9.942-122.224 25.137 2.537-1.945-1.213-19.374-4.366-32.512-3.813-15.89-9.411-18.235-9.411-18.235 33.75-16.114 83.914-27.48 136.205-27.589 52.31.109 102.732 11.106 136.487 27.22 0 0-6.676 3.527-10.487 19.42-3.152 13.134-5.717 29.75-3.177 31.696-30.524-15.195-74.707-24.985-123.027-25.137" style="fill:#f0b820;fill-opacity:1;stroke-width:1.99445999"/><g style="fill:#f0b820;fill-opacity:1;stroke-width:2.21709991"><path d="M-140.109 253.208c-52.29.133-99.273 10.189-133.024 26.328-2.25 1.09-4.63-.336-5.36-3.776-.728-3.448.483-7.402 2.733-8.517 33.896-16.804 82.09-27.355 135.663-27.532 53.585.158 101.963 10.728 135.863 27.532 2.25 1.115 3.462 5.069 2.733 8.517-.734 3.44-3.113 4.866-5.36 3.776-33.755-16.139-80.937-26.195-133.248-26.328m.141 112.808c-47.751-.114-90.527-9.25-121.052-24.11-2.235-1.097-3.403-4.404-3.274-7.825-.039-3.328 1.114-6.344 3.274-7.395 30.525-14.84 73.3-23.977 121.052-24.092 47.743.115 90.488 9.252 121.016 24.092 2.16 1.051 3.293 4.067 3.254 7.395.117 3.421-1.035 6.728-3.254 7.825-30.529 14.86-73.273 23.996-121.016 24.11" style="fill:#f0b820;fill-opacity:1"/></g></g><path d="M-140.096 355.891c-43.093-.087-82.043-8.129-111.693-20.51 29.65-12.402 68.6-19.98 111.693-20.113 43.086.133 82.244 7.711 111.894 20.112-29.65 12.382-68.808 20.423-111.894 20.511" style="fill:#bf9d38;fill-opacity:1;stroke-width:2.21709991"/></g><g style="stroke:#000" transform="matrix(.20144 0 0 .17209 296.187 520.762)"><circle cy="-12.7" r="142" clip-path="url(#b)" style="fill:none" transform="matrix(2.06769 0 0 2.19068 -144.249 43.332)"/><g style="fill:#f0b820;fill-opacity:1"><path d="M-329.253 171.963c18.533 34.434 36.559 69.148 54.618 103.845H-6.018c20.083-34.334 35.461-69.347 55.277-103.845l-68.589 57.65-6.35-92.162-72.824 84.711-37.682-94.908-41.493 94.908-66.472-84.711-12.702 92.163z" style="fill:#f0b820;fill-opacity:1;stroke-width:2.21700001"/><path d="M-140.4 302.53c-48.324.152-91.695 9.942-122.224 25.137 2.537-1.945-1.213-19.374-4.366-32.512-3.813-15.89-9.411-18.235-9.411-18.235 33.75-16.114 83.914-27.48 136.205-27.589 52.31.109 102.732 11.106 136.487 27.22 0 0-6.676 3.527-10.487 19.42-3.152 13.134-5.717 29.75-3.177 31.696-30.524-15.195-74.707-24.985-123.027-25.137" style="fill:#f0b820;fill-opacity:1;stroke-width:1.99445999"/><g style="fill:#f0b820;fill-opacity:1;stroke-width:2.21709991"><path d="M-140.109 253.208c-52.29.133-99.273 10.189-133.024 26.328-2.25 1.09-4.63-.336-5.36-3.776-.728-3.448.483-7.402 2.733-8.517 33.896-16.804 82.09-27.355 135.663-27.532 53.585.158 101.963 10.728 135.863 27.532 2.25 1.115 3.462 5.069 2.733 8.517-.734 3.44-3.113 4.866-5.36 3.776-33.755-16.139-80.937-26.195-133.248-26.328m.141 112.808c-47.751-.114-90.527-9.25-121.052-24.11-2.235-1.097-3.403-4.404-3.274-7.825-.039-3.328 1.114-6.344 3.274-7.395 30.525-14.84 73.3-23.977 121.052-24.092 47.743.115 90.488 9.252 121.016 24.092 2.16 1.051 3.293 4.067 3.254 7.395.117 3.421-1.035 6.728-3.254 7.825-30.529 14.86-73.273 23.996-121.016 24.11" style="fill:#f0b820;fill-opacity:1"/></g></g><path d="M-140.096 355.891c-43.093-.087-82.043-8.129-111.693-20.51 29.65-12.402 68.6-19.98 111.693-20.113 43.086.133 82.244 7.711 111.894 20.112-29.65 12.382-68.808 20.423-111.894 20.511" style="fill:#bf9d38;fill-opacity:1;stroke-width:2.21709991"/></g><g style="stroke:#000" transform="matrix(.20144 0 0 .17209 245.003 593.719)"><circle cy="-12.7" r="142" clip-path="url(#c)" style="fill:none" transform="matrix(2.06769 0 0 2.19068 -144.249 43.332)"/><g style="fill:#f0b820;fill-opacity:1"><path d="M-329.253 171.963c18.533 34.434 36.559 69.148 54.618 103.845H-6.018c20.083-34.334 35.461-69.347 55.277-103.845l-68.589 57.65-6.35-92.162-72.824 84.711-37.682-94.908-41.493 94.908-66.472-84.711-12.702 92.163z" style="fill:#f0b820;fill-opacity:1;stroke-width:2.21700001"/><path d="M-140.4 302.53c-48.324.152-91.695 9.942-122.224 25.137 2.537-1.945-1.213-19.374-4.366-32.512-3.813-15.89-9.411-18.235-9.411-18.235 33.75-16.114 83.914-27.48 136.205-27.589 52.31.109 102.732 11.106 136.487 27.22 0 0-6.676 3.527-10.487 19.42-3.152 13.134-5.717 29.75-3.177 31.696-30.524-15.195-74.707-24.985-123.027-25.137" style="fill:#f0b820;fill-opacity:1;stroke-width:1.99445999"/><g style="fill:#f0b820;fill-opacity:1;stroke-width:2.21709991"><path d="M-140.109 253.208c-52.29.133-99.273 10.189-133.024 26.328-2.25 1.09-4.63-.336-5.36-3.776-.728-3.448.483-7.402 2.733-8.517 33.896-16.804 82.09-27.355 135.663-27.532 53.585.158 101.963 10.728 135.863 27.532 2.25 1.115 3.462 5.069 2.733 8.517-.734 3.44-3.113 4.866-5.36 3.776-33.755-16.139-80.937-26.195-133.248-26.328m.141 112.808c-47.751-.114-90.527-9.25-121.052-24.11-2.235-1.097-3.403-4.404-3.274-7.825-.039-3.328 1.114-6.344 3.274-7.395 30.525-14.84 73.3-23.977 121.052-24.092 47.743.115 90.488 9.252 121.016 24.092 2.16 1.051 3.293 4.067 3.254 7.395.117 3.421-1.035 6.728-3.254 7.825-30.529 14.86-73.273 23.996-121.016 24.11" style="fill:#f0b820;fill-opacity:1"/></g></g><path d="M-140.096 355.891c-43.093-.087-82.043-8.129-111.693-20.51 29.65-12.402 68.6-19.98 111.693-20.113 43.086.133 82.244 7.711 111.894 20.112-29.65 12.382-68.808 20.423-111.894 20.511" style="fill:#bf9d38;fill-opacity:1;stroke-width:2.21709991"/></g><path d="M523.766 869.611c.543 35.494 2.608 63.191 20.633 84.849 21.712 26.088 57.885 44.915 104.416 63.412 46.53-18.497 82.702-37.324 104.415-63.412 18.024-21.658 20.031-49.356 20.632-84.849.624-36.84.663-83.657 0-120.498-38.7 29.193-102.97 19.31-125.27.847-30.897 21.113-89.139 29.328-124.827-1.417-.752 36.84-.563 84.228 0 121.067z" style="fill:#1f4b93;fill-opacity:1;stroke:none;stroke-width:3;stroke-miterlimit:4;stroke-dasharray:none;stroke-opacity:1" transform="matrix(.99798 0 0 .99726 335.339 -278.136)"/><path d="M1153.57 748.909c-5.34-2.926-7.115-3.458-10.72-5.435-3.604-1.977-3.535-1.843-5.853-3.127s-9.606-5.844-11.087-6.692-2.656-1.54-3.75-2.207c-2.186-1.334-3.996-2.615-7.105-4.838s-7.518-5.39-14.018-11.465c-10.163-9.497-16.93-17.553-21.497-27.42-4.579-9.89-6.997-21.51-9.102-37.12-.559-4.145-1.625-17.844-1.943-32.094-.583-26.186-.355-120.634.256-121.228.196-.19 1.629 1.427 2.426 1.975 2.732 2.156 10.701 7.484 16.016 9.696 11.024 4.59 17.136 5.944 24.966 7.221 12.263 2 23.934 1.72 37.881-.806 17.197-3.117 23.358-5.727 37.744-13.205 2.251-1.17 3.495-2.694 5.467-3.813.824 129.853.296 129.051.017 268.147-3.209-1.346-6.032-2.54-9.203-3.977-10.203-4.118-20.35-8.862-30.495-13.612" style="fill:#fff" transform="matrix(.99798 0 0 .99726 -208.314 -27.43)"/><path d="M1068.7 618.215c.999 35.272 2.608 63.191 20.633 84.849 21.712 26.088 57.404 44.937 103.934 63.434 46.53-18.497 83.184-37.346 104.897-63.434 18.024-21.658 20.031-49.356 20.632-84.849.624-36.84.663-83.657 0-120.498-38.7 29.193-103.15 19.311-125.45.847-30.898 21.113-88.959 29.328-124.647-1.417-.752 36.84-1.043 84.238 0 121.067z" style="fill:none;stroke:#000;stroke-width:3;stroke-miterlimit:4;stroke-dasharray:none" transform="matrix(.99798 0 0 .99726 -208.314 -27.43)"/><g style="stroke:#000"><g style="display:inline;opacity:1;stroke:#000"><g style="fill:#000;fill-opacity:1;stroke:#fff;stroke-opacity:1" transform="matrix(.15104 0 0 .09945 929.18 545.242)"><g style="display:inline;opacity:1;fill:#000;fill-opacity:1;stroke:#fff;stroke-width:6;stroke-linecap:round;stroke-linejoin:round;stroke-miterlimit:4;stroke-dasharray:none;stroke-opacity:1"><g style="fill:#000;fill-opacity:1;stroke:#fff;stroke-width:6;stroke-linecap:round;stroke-linejoin:round;stroke-miterlimit:4;stroke-dasharray:none;stroke-opacity:1"><g style="fill:#000;fill-opacity:1;stroke:#fff;stroke-width:6;stroke-linecap:round;stroke-linejoin:round;stroke-miterlimit:4;stroke-dasharray:none;stroke-opacity:1"><path d="M-54.394 887.56c.094-.576.898-23.58.883-23.382-.014.199-29.915-.791-35.07.31-8.803 1.882-13.834 10.906-12.434 26.755.805 5.256 1.34 10.782 6.06 12.122 4.783-22.01 10.592-17.093 15.665-17.016 6.13.094 24.802 1.786 24.896 1.21" style="color:#000;display:inline;overflow:visible;visibility:visible;opacity:1;fill:#000;fill-opacity:1;fill-rule:nonzero;stroke:#fff;stroke-width:6;stroke-linecap:round;stroke-linejoin:round;stroke-miterlimit:4;stroke-dasharray:none;stroke-dashoffset:0;stroke-opacity:1;marker:none;marker-start:none;marker-mid:none;marker-end:none"/><path d="m10 792.005-15.714 15.714-16.072-10.714c-5.257-5.067-14.417-6.283-26.428-3.571 12.29-23.85 38.058-22.588 44.285-13.929z" style="color:#000;display:inline;overflow:visible;visibility:visible;opacity:1;fill:#000;fill-opacity:1;fill-rule:nonzero;stroke:#fff;stroke-width:6;stroke-linecap:round;stroke-linejoin:round;stroke-miterlimit:4;stroke-dasharray:none;stroke-dashoffset:0;stroke-opacity:1;marker:none;marker-start:none;marker-mid:none;marker-end:none"/><path d="M5.714 959.148c13.004-3.154 4.82-38.556-12.5-25.714S-43.12 955.38-22.5 985.219c1.043-21.554 15.211-22.917 28.214-26.071" style="color:#000;display:inline;overflow:visible;visibility:visible;opacity:1;fill:#000;fill-opacity:1;fill-rule:nonzero;stroke:#fff;stroke-width:6;stroke-linecap:round;stroke-linejoin:round;stroke-miterlimit:4;stroke-dasharray:none;stroke-dashoffset:0;stroke-opacity:1;marker:none;marker-start:none;marker-mid:none;marker-end:none"/><path d="M162.857 879.505c30.407-17.46 47.33-13.73 51.072 10.714-16.16-7.776-26.677-3.011-34.286 8.215" style="color:#000;display:inline;overflow:visible;visibility:visible;opacity:1;fill:#000;fill-opacity:1;fill-rule:nonzero;stroke:#fff;stroke-width:6;stroke-linecap:round;stroke-linejoin:round;stroke-miterlimit:4;stroke-dasharray:none;stroke-dashoffset:0;stroke-opacity:1;marker:none;marker-start:none;marker-mid:none;marker-end:none"/></g><path d="m245.714 696.648-34.285-17.143L87.143 850.219C78.675 838.004 72.269 819.602 65 803.791L5.418 782.78c-9.06 6.233-17.98 16.974-25.714 30 5.42 5.802 12.13 7.73 18.867 9.581 9.048-4.922 18.096-6.81 27.143-5 11.066 14.7 14.536 25.601 20.715 37.857-16.767-4.382-37.485-12.844-64.669-23.744-14.987 8.835-31.23 20.291-50 22.82 1.662 3.314 2.709 6.55 3.297 9.73 1.955 10.555-1.148 20.479-3.628 30.48 4.262 9.04 10.796 5.921 15.173 7.561 25.775-21.042 27.315-25.198 40.714-25.714 26.921.699 35.911 3.39 51.97 5.296-14.778 15.936-31.892 34.096-52.143 40-2.87 4.678-2.566 10.415-1.429 16.428 17.219 11.508 9.335 18.058 8.99 27.057 1.97 2.654 7.632 2.848 13.572 2.857 14.023-21.743 22.03-21.427 32.438-29.914 7.41-8.361 9.655-18.66 17.18-24.31 25.573-19.199 48.296-25.573 68.83-22.832 24.73 9.966 39.172 15.03 56.847 15.714.602-3.56 4.073-2.39 2.23-10.837-7.143-1.107-14.286-15.303-21.429-25-17.205-.13-35.73 2.378-46.515-10.592z" style="color:#000;display:inline;overflow:visible;visibility:visible;opacity:1;fill:#000;fill-opacity:1;fill-rule:nonzero;stroke:#fff;stroke-width:6;stroke-linecap:round;stroke-linejoin:round;stroke-miterlimit:4;stroke-dasharray:none;stroke-dashoffset:0;stroke-opacity:1;marker:none;marker-start:none;marker-mid:none;marker-end:none"/></g></g><g style="display:inline;opacity:1;fill:#fcef3c;fill-opacity:1;stroke:#000;stroke-width:6;stroke-miterlimit:4;stroke-dasharray:none;stroke-opacity:1"><path d="m481.132 227.532 9.597-6.566c4.545 2.273 65.154-4.04 81.064-9.596s47.565-28.371 50.76-31.315c12.822-11.811 33.62-39.53 35.634-42.932 8.015-13.535 20.28-41.712 22.389-57.116 2.118-15.467 4.268-40.389 3.763-41.651s-1.893-5.852-6.732-7.299c-5.444-1.627-28.769-8.677-32.03-12.053-2.608-2.7-29.85-24.202-34.013-38.732-3.565-12.445-3.701-21.188-3.701-30.28 0-9.09.043-22.944 3.579-33.804 3.535-10.859 13.593-20.534 27.23-30.636s35.147-12.078 35.147-12.078l115.453 1.959c.117.023 76.64-1.445 134.603-25.532-39.02 110.133-128.177 88.47-142.223 94.788 122.114 37.945 179.007 40.628 190.92 37.376-.187 3.318-14.914 20.25-31.758 33.1-13.626 10.396-32.508 17.472-41.479 18.923-18.812 3.043-39.512 1.888-61.85.459-12.499-.8-52.025-13.023-48.761-8.035 2.56 3.913 20.119 16.123 41.605 34.193 18.878 15.876 40.752 38.007 62.33 55.753 38.59 31.738 78.63 50.822 76.377 52.99-12.738 12.261-48.17 20.978-77.59 12.312-12.63-3.72-20.49-8.184-34.288-17.72-10.663-7.37-25.497-21.717-34.292-29.654-16.691-15.064-32.371-27.528-42.224-36.153.032 6.776 5.249 14.04 11.617 25.758 79.802 148.998 170.716 300.016 170.716 300.016-76.414 4.213-119.584-73.49-156.334-121.388-46.774-60.962-36.091-48.204-46.202-61.955s2.417 8.679 23.739 60.61c25.83 56.35 25.167 99.525 34.454 158.859 7.16 44.28 17.797 96.784 18.074 90.648.998 14.782 37.668 110.178 68.185 190.414-36.057-2.907-61.934-23.852-81.317-43.437-14.395-21.321-26.345-42.994-35.356-65.66-16.42-38.237-28.31-74.843-40.279-109.807-25.075-73.251-42.577-137.907-60.23-183.642l.56 95.102c-2.127 22.72 5.342 126.746 9.97 158.584 11.254 77.415 13.971 123.372 23.31 165.527-118.673-18.463-149.21-255.509-146.473-353.048-9.765 72.952-19.53 143.8-29.294 206.071-23.717-13.238-37.113-26.858-42.932-53.538-5.219-73.776-11.448-137.213-16.667-199.505l-48.993-94.955z" style="color:#000;display:inline;overflow:visible;visibility:visible;fill:#000;fill-opacity:1;fill-rule:nonzero;stroke:none;stroke-width:6;stroke-linecap:butt;stroke-linejoin:round;stroke-miterlimit:4;stroke-dasharray:none;stroke-dashoffset:0;stroke-opacity:1;marker:none;marker-start:none;marker-mid:none;marker-end:none" transform="matrix(-1 0 0 1 715.071 0)"/><g style="fill:#fcef3c;fill-opacity:1;stroke:#fff;stroke-opacity:1"><g style="fill:#fcef3c;fill-opacity:1;stroke:#fff;stroke-linecap:round;stroke-linejoin:round;stroke-opacity:1"><path d="M-190.714 7.362c42.535 4.069 87.966-4.897 134.285-17.857" style="color:#000;display:inline;overflow:visible;visibility:visible;opacity:1;fill:none;fill-opacity:1;fill-rule:nonzero;stroke:#fff;stroke-width:6;stroke-linecap:round;stroke-linejoin:round;stroke-miterlimit:4;stroke-dasharray:none;stroke-dashoffset:0;stroke-opacity:1;marker:none;marker-start:none;marker-mid:none;marker-end:none"/><path d="M-67.857 58.79c-90.86 91.661-106.721 97.859-117.143 97.858" style="color:#000;display:inline;overflow:visible;visibility:visible;opacity:1;fill:none;fill-opacity:1;fill-rule:nonzero;stroke:#fff;stroke-width:6;stroke-linecap:round;stroke-linejoin:round;stroke-miterlimit:4;stroke-dasharray:none;stroke-dashoffset:0;stroke-opacity:1;marker:none;marker-start:none;marker-mid:none;marker-end:none"/><path d="M-189.286 376.648c34.315-51.105 52.846-69.622 142.857-235.714" style="color:#000;display:inline;overflow:visible;visibility:visible;opacity:1;fill:#fcef3c;fill-opacity:1;fill-rule:nonzero;stroke:#fff;stroke-width:6;stroke-linecap:round;stroke-linejoin:round;stroke-miterlimit:4;stroke-dasharray:none;stroke-dashoffset:0;stroke-opacity:1;marker:none;marker-start:none;marker-mid:none;marker-end:none"/><path d="M-112.857 629.505c36.316-91.174 69.66-236.846 104.286-360.143" style="color:#000;display:inline;overflow:visible;visibility:visible;opacity:1;fill:#fcef3c;fill-opacity:1;fill-rule:nonzero;stroke:#fff;stroke-width:6;stroke-linecap:round;stroke-linejoin:round;stroke-miterlimit:4;stroke-dasharray:none;stroke-dashoffset:0;stroke-opacity:1;marker:none;marker-start:none;marker-mid:none;marker-end:none"/><path d="M50 649.505c9.353-41.897 22.672-180.91 35.714-320.571" style="color:#000;display:inline;overflow:visible;visibility:visible;opacity:1;fill:#fcef3c;fill-opacity:1;fill-rule:nonzero;stroke:#fff;stroke-width:6;stroke-linecap:round;stroke-linejoin:round;stroke-miterlimit:4;stroke-dasharray:none;stroke-dashoffset:0;stroke-opacity:1;marker:none;marker-start:none;marker-mid:none;marker-end:none"/><path d="M177.857 541.648v-170" style="color:#000;display:inline;overflow:visible;visibility:visible;opacity:1;fill:#fcef3c;fill-opacity:1;fill-rule:nonzero;stroke:#fff;stroke-width:6;stroke-linecap:round;stroke-linejoin:round;stroke-miterlimit:4;stroke-dasharray:none;stroke-dashoffset:0;stroke-opacity:1;marker:none;marker-start:none;marker-mid:none;marker-end:none"/><path d="M-22.857 62.362c-25.875 12.233-60.039 24.09-5 40-36.04 19.485-39.687 35.73 19.286 45.714-9.7-1.95-103.24 42.778 12.857 33.572-71.133 62.825-19.981 56.456 12.143 40-62.088 45.63-11.024 69.863 30.714 35.714-54.791 85.447 26.07 77.726 40 27.857-18.9 54.37 32.28 108.496 55.714 14.286-4.875 103.728 52.874 73.587 62.857 13.571" style="color:#000;display:inline;overflow:visible;visibility:visible;opacity:1;fill:none;fill-opacity:1;fill-rule:nonzero;stroke:#fff;stroke-width:6;stroke-linecap:round;stroke-linejoin:round;stroke-miterlimit:4;stroke-dasharray:none;stroke-dashoffset:0;stroke-opacity:1;marker:none;marker-start:none;marker-mid:none;marker-end:none"/><path d="M-24.286 84.505h-10" style="color:#000;display:inline;overflow:visible;visibility:visible;opacity:1;fill:#fcef3c;fill-opacity:1;fill-rule:nonzero;stroke:#fff;stroke-width:6;stroke-linecap:round;stroke-linejoin:round;stroke-miterlimit:4;stroke-dasharray:none;stroke-dashoffset:0;stroke-opacity:1;marker:none;marker-start:none;marker-mid:none;marker-end:none"/><path d="m-18.571 120.934-20 5.714" style="color:#000;display:inline;overflow:visible;visibility:visible;opacity:1;fill:#fcef3c;fill-opacity:1;fill-rule:nonzero;stroke:#fff;stroke-width:6;stroke-linecap:round;stroke-linejoin:round;stroke-miterlimit:4;stroke-dasharray:none;stroke-dashoffset:0;stroke-opacity:1;marker:none;marker-start:none;marker-mid:none;marker-end:none"/><path d="m-3.571 161.648-22.858 5.714" style="color:#000;display:inline;overflow:visible;visibility:visible;opacity:1;fill:#fcef3c;fill-opacity:1;fill-rule:nonzero;stroke:#fff;stroke-width:6;stroke-linecap:round;stroke-linejoin:round;stroke-miterlimit:4;stroke-dasharray:none;stroke-dashoffset:0;stroke-opacity:1;marker:none;marker-start:none;marker-mid:none;marker-end:none"/><path d="m11.429 198.79-19.286 12.144" style="color:#000;display:inline;overflow:visible;visibility:visible;opacity:1;fill:#fcef3c;fill-opacity:1;fill-rule:nonzero;stroke:#fff;stroke-width:6;stroke-linecap:round;stroke-linejoin:round;stroke-miterlimit:4;stroke-dasharray:none;stroke-dashoffset:0;stroke-opacity:1;marker:none;marker-start:none;marker-mid:none;marker-end:none"/><path d="M32.143 231.648 10 255.934" style="color:#000;display:inline;overflow:visible;visibility:visible;opacity:1;fill:#fcef3c;fill-opacity:1;fill-rule:nonzero;stroke:#fff;stroke-width:6;stroke-linecap:round;stroke-linejoin:round;stroke-miterlimit:4;stroke-dasharray:none;stroke-dashoffset:0;stroke-opacity:1;marker:none;marker-start:none;marker-mid:none;marker-end:none"/><path d="m67.857 263.79-17.143 30.715" style="color:#000;display:inline;overflow:visible;visibility:visible;opacity:1;fill:#fcef3c;fill-opacity:1;fill-rule:nonzero;stroke:#fff;stroke-width:6;stroke-linecap:round;stroke-linejoin:round;stroke-miterlimit:4;stroke-dasharray:none;stroke-dashoffset:0;stroke-opacity:1;marker:none;marker-start:none;marker-mid:none;marker-end:none"/><path d="m119.286 286.648-13.572 40.714" style="color:#000;display:inline;overflow:visible;visibility:visible;opacity:1;fill:#fcef3c;fill-opacity:1;fill-rule:nonzero;stroke:#fff;stroke-width:6;stroke-linecap:round;stroke-linejoin:round;stroke-miterlimit:4;stroke-dasharray:none;stroke-dashoffset:0;stroke-opacity:1;marker:none;marker-start:none;marker-mid:none;marker-end:none"/><path d="m175 308.076-7.143 32.858" style="color:#000;display:inline;overflow:visible;visibility:visible;opacity:1;fill:#fcef3c;fill-opacity:1;fill-rule:nonzero;stroke:#fff;stroke-width:6;stroke-linecap:round;stroke-linejoin:round;stroke-miterlimit:4;stroke-dasharray:none;stroke-dashoffset:0;stroke-opacity:1;marker:none;marker-start:none;marker-mid:none;marker-end:none"/><path d="M-18.571-83.352c-46.21-6.6-102.587-8.962-127.858-24.286" style="color:#000;display:inline;overflow:visible;visibility:visible;opacity:1;fill:none;fill-opacity:1;fill-rule:nonzero;stroke:#fff;stroke-width:6;stroke-linecap:round;stroke-linejoin:round;stroke-miterlimit:4;stroke-dasharray:none;stroke-dashoffset:0;stroke-opacity:1;marker:none;marker-start:none;marker-mid:none;marker-end:none"/></g></g></g><g style="display:inline;fill:#ffe814;fill-opacity:1;stroke:#000;stroke-opacity:1"><path d="m419.718-92.646-38.89 109.097C320.547-11.794 283.36-19.108 266.175-8.298c10.713-13.817 24.502-40 98.995-9.596-11.29-33.448-96.75-69.073-112.632-32.325-22.071-52.033 1.027-75.752 69.196-71.216z" style="color:#000;display:inline;overflow:visible;visibility:visible;opacity:1;fill:#ffd214;fill-opacity:1;fill-rule:nonzero;stroke:#000;stroke-width:6;stroke-linecap:round;stroke-linejoin:round;stroke-miterlimit:4;stroke-dasharray:none;stroke-dashoffset:0;stroke-opacity:1;marker:none;marker-start:none;marker-mid:none;marker-end:none" transform="translate(-100)"/><path d="M207.586-21.418s11.937 8.681 24.532 10.122c22.756 5.52 39.623-28.799 68.558-30.18 22.435-2.388 46.669 10.105 68.316 14.772l-1.337 5.269c-16.67-3.65-48.228-14.329-63.267-13.37-36.123 4.512-47.004 43.991-80.75 33.942-18.58-8.266-16.052-20.555-16.052-20.555Z" style="display:inline;opacity:1;fill:#ed1c24;fill-opacity:1;fill-rule:evenodd;stroke:#000;stroke-width:3.80283475;stroke-linecap:round;stroke-miterlimit:4;stroke-opacity:1" transform="translate(-100)"/></g><path d="M357.162-83.393c0-12.843-16.755-35.373-30.675-41.578-9.34-6.2-35.356-13.666-90.774-14.779-19.358-.388-32.19 1.118-33.474 20.335C273.375-35.91 272.78-3.188 236.584 4.33c37.374 71.763-69.043 133.629-17.48 186.373-64.644 20.644-13.51 10.736-16.961 15.232-40.377 12.93 25.71 159.72 54.286 362.142-5.477 22.956-10.953 34.612-16.429 46.429-9.372 12.325-28.109 36.94-55.714 58.571L195 678.791l-15 15.714c24.225 16.424 61.944 7.212 69.286 55.714 1.238-39.734 8.692-16.804 17.143-7.857 1.362-57.5 25.38-78.219 45-102.857 1.53 29.296 16.209 82.64-27.143 130.714-33.896 16.249-68.574 11.367-100.715 75 22.149-5.712 19.118-18.475 84.286-12.143l41.429-24.285c-8.55 30.152 9.892 57.163-98.572 107.143C134.03 933.462 80.27 966.272 55 1018.077c41.874-20.806 86.146-34.097 142.857-45 59.946-33.259 73.227-54.383 103.572-85-8.623 23.23-13.32 43.321-30.715 73.57-36.49 36.492-86.745 54.795-72.857 157.858 45.954-73.696 80.228-63.04 129.286-237.143 8.577 38.08 17.672 74.868 11.428 150-11.189 35.81-9.765 66.573-47.142 112.857l34.285-8.571 28.975 96.332" style="color:#000;display:inline;overflow:visible;visibility:visible;fill:#000;fill-opacity:1;fill-rule:nonzero;stroke:none;stroke-width:6;stroke-linecap:butt;stroke-linejoin:round;stroke-miterlimit:4;stroke-dasharray:none;stroke-dashoffset:0;stroke-opacity:1;marker:none;marker-start:none;marker-mid:none;marker-end:none"/><path stroke="none" d="M1865.559-322.06a16.63 16.63 0 0 0-2.86 9.312 16.625 16.625 0 0 0 16.625 16.625 16.625 16.625 0 0 0 16.625-16.625 17 17 0 0 0-.039-1.082 27.377 13.592 10.612 0 1-15.785-1.63 27.377 13.592 10.612 0 1-14.566-6.6" style="opacity:1;fill:#fff;fill-opacity:1;stroke:none;stroke-width:.23772652;stroke-miterlimit:4;stroke-dasharray:none;stroke-opacity:1" transform="translate(-1607.714 216.757)"/><ellipse cx="265.499" cy="-92.101" stroke="none" rx="7.513" ry="7.768" style="opacity:1;fill:#000;fill-opacity:1;stroke:none;stroke-width:2.16101694;stroke-miterlimit:4;stroke-dasharray:none;stroke-opacity:1"/></g></g></g><path d="M740.43 887.475c.043 10.358.158 23.39 1.28 29.623.227 1.264.589 2.34 1.004 3.253-1.607.91-2.572 2.449-2.566 4.096.01 2.705 2.585 4.89 5.75 4.88s5.721-2.21 5.71-4.913c-.008-1.647-.984-3.18-2.598-4.08.408-.916.76-1.995.978-3.26 1.071-6.24 1.081-19.272 1.04-29.63" style="display:inline;opacity:1;vector-effect:none;fill:#d4aa00;fill-opacity:1;stroke:#000;stroke-width:.65617454;stroke-linecap:round;stroke-linejoin:round;stroke-miterlimit:4;stroke-dasharray:none;stroke-dashoffset:0;stroke-opacity:1" transform="matrix(.99798 0 0 .99726 335.339 -278.136)"/><g style="display:inline"><g style="display:inline"><path d="M1105.578 570.215V413.398c0-34.013-3.503-46.23-11.197-50.86-7.695 4.63-11.196 16.847-11.196 50.86v156.817" style="opacity:1;vector-effect:none;fill:#fff;fill-opacity:1;stroke:#000;stroke-width:1.5;stroke-linecap:round;stroke-linejoin:round;stroke-miterlimit:4;stroke-dasharray:none;stroke-dashoffset:0;stroke-opacity:1" transform="matrix(.47227 -.0014 .00163 .40326 561.136 378.466)"/><path d="M1164.763 624.215a6.66 6.66 0 0 0-6.66 6.66 6.66 6.66 0 0 0 6.66 6.662h49.236a6.66 6.66 0 0 0 6.66-6.662 6.66 6.66 0 0 0-6.66-6.66z" style="opacity:1;vector-effect:none;fill:#d4aa00;fill-opacity:1;fill-rule:evenodd;stroke:#000;stroke-width:1.5;stroke-linecap:round;stroke-linejoin:round;stroke-miterlimit:4;stroke-dasharray:none;stroke-dashoffset:0;stroke-opacity:1" transform="matrix(.47227 -.0014 .00163 .40326 516.182 356.822)"/><path d="M1189.381 416.537v207.679" style="opacity:1;vector-effect:none;fill:none;fill-opacity:1;stroke:#000;stroke-width:1;stroke-linecap:butt;stroke-linejoin:miter;stroke-miterlimit:4;stroke-dasharray:none;stroke-dashoffset:0;stroke-opacity:1" transform="matrix(.47227 -.0014 .00163 .40326 516.182 356.822)"/></g><path d="M824.442 596.173s-.564 2.016-.639 3.046c-.29 4-.781 8.216.747 12.017.635 1.579 3.351 4.116 3.351 4.116s.172-1.753.128-2.63c-.263-5.174.3-10.734-2.322-15.419-.263-.47-1.265-1.13-1.265-1.13" style="opacity:1;vector-effect:none;fill:#ccc;fill-opacity:1;stroke:#000;stroke-width:.43744966;stroke-linecap:round;stroke-linejoin:round;stroke-miterlimit:4;stroke-dasharray:none;stroke-dashoffset:0;stroke-opacity:1" transform="matrix(.99766 -.02529 .0253 .99693 222.767 44.232)"/><g style="fill:#fff"><path d="M250.94 464.963c-11.064 2.154-17.317 4.481-25.587 10.88-5.977 4.741-12.666 16.687-12.666 16.687L260 609.498c1.165.986 2.248 1.96 3.053 2.836 14.19 15.451 18.697 38.835 34.494 52.639 5.756 5.029 13.053 9.597 20.691 9.884 6.253.236 12.135-3.574 17.5-6.794 32.588-19.559 58.805-45.097 88.831-68.397 4.332-3.362 12.922-10.815 12.922-10.815s-7.73-3.465-10.496-6.515c-6.66-7.345-9.812-17.344-13.145-26.682-.858-2.406-1.732-7.467-1.732-7.467s-27.758 11.278-40.36 19.693c-13.888 9.276-39.596 28.75-39.596 28.75s-36.443-66.151-42.25-83.45c-4.848-14.447-9.87-30.202-20.658-40.963-4.65-4.637-11.749-7.31-18.315-7.254" style="opacity:1;vector-effect:none;fill:#fff;fill-opacity:1;stroke:#000;stroke-width:1.5;stroke-linecap:round;stroke-linejoin:round;stroke-miterlimit:4;stroke-dasharray:none;stroke-dashoffset:0;stroke-opacity:1" transform="matrix(.43805 .15071 -.1765 .37404 976.595 350.57)"/><g style="fill:#fff"><path d="M1046.807 674.622s3.307-4.387 5.45-6.055c1.62-1.262 5.448-2.876 5.448-2.876" style="opacity:1;vector-effect:none;fill:#fff;fill-opacity:1;stroke:#000;stroke-width:1.5;stroke-linecap:round;stroke-linejoin:round;stroke-miterlimit:4;stroke-dasharray:none;stroke-dashoffset:0;stroke-opacity:1" transform="matrix(.47227 -.0014 .00163 .40326 516.182 356.822)"/><path d="M1043.628 669.172s2.202.631 3.33.606c1.811-.04 5.298-1.211 5.298-1.211" style="opacity:1;vector-effect:none;fill:#fff;fill-opacity:1;stroke:#000;stroke-width:1;stroke-linecap:round;stroke-linejoin:round;stroke-miterlimit:4;stroke-dasharray:none;stroke-dashoffset:0;stroke-opacity:1" transform="matrix(.47227 -.0014 .00163 .40326 516.182 356.822)"/></g></g><path d="M1068.664 583.537c-2.02 2.022-4.208 3.869-6.357 5.752-2.737 2.398-5.146 5.313-8.13 7.354-.168 1.07-.311 2.126-.347 2.939-.417 9.532-1.207 19.565 1.764 28.607 1.351.09 2.698.216 3.685.456 9.4 2.282 18.696 10.755 28.354 10.218 7.86-.437 14.522 1.073 21.383.643 2.278-.143 4.836-2.403 5.914-4.416.728-1.361.053-4.326.053-4.326s4.956-2.183 6.195-4.756c1.146-2.38 1.311-5.278.162-7.656-.62-1.285-3.455-2.172-3.455-2.172s4.474-2.964 5.234-5.272c.614-1.86.278-4.412-.568-6.18-1.155-2.792-2.724-3.33-2.724-3.33 1.529-.473 4.043-3.922 3.632-7.265-.068-1.99-1.433-3.955-3.027-5.147-2.666-1.993-5.944-1.001-9.26-.71-6.165.54-12.284 3.837-18.451 4.357-3.634.306-8.217-1.439-8.217-1.439l.197-10.821s-16.226 3.563-16.037 3.164" style="opacity:1;vector-effect:none;fill:#fdb380;fill-opacity:1;stroke:#000;stroke-width:1.5;stroke-linecap:round;stroke-linejoin:round;stroke-miterlimit:4;stroke-dasharray:none;stroke-dashoffset:0;stroke-opacity:1" transform="matrix(.47227 -.0014 .00163 .40326 561.136 380.46)"/><path d="M1187.709 659.862s11.267-1.973 16.911-2.89c3.398-.552 10.206-1.574 10.206-1.574m-25.445 20.412s11.245-1.842 16.738-3.318c2.302-.619 6.766-2.312 6.766-2.312m-21.109 14.514s6.56.537 9.847.535c2.791-.002 8.36-.465 8.36-.465" style="opacity:1;vector-effect:none;fill:none;fill-opacity:1;stroke:#000;stroke-width:1.5;stroke-linecap:round;stroke-linejoin:round;stroke-miterlimit:4;stroke-dasharray:none;stroke-dashoffset:0;stroke-opacity:1" transform="matrix(.47227 -.0014 .00163 .40326 516.182 358.816)"/></g><path d="M626.177 856.864c2.597 9.739 6.66 3.143 7.724.507.956 1.964 1.6 4.304 4.405 4.489 1.874.123 3.68-2.018 4.327-5.075 1.103 5.284 5.069 8.264 7.408-.223m-19.108 9.129c2.597 9.739 6.661 3.143 7.725.507.955 1.964 1.599 4.304 4.404 4.489 1.875.123 3.68-2.018 4.327-5.075 1.103 5.284 2.55 4.595 2.768 4.064m-16.328 5.717c2.597 9.738 6.66 3.143 7.724.506.955 1.964 1.6 4.305 4.405 4.49 1.874.123 3.68-2.019 4.327-5.076" style="fill:none;stroke:#fff;stroke-width:1px;stroke-linecap:butt;stroke-linejoin:miter;stroke-opacity:1" transform="matrix(.99798 0 0 .99726 335.339 -278.136)"/><path d="m630.058 856.72.034 2.847" style="color:#000;display:inline;overflow:visible;visibility:visible;opacity:1;fill:#fcef3c;fill-opacity:1;fill-rule:nonzero;stroke:#fff;stroke-width:.66949385;stroke-linecap:round;stroke-linejoin:round;stroke-miterlimit:4;stroke-dasharray:none;stroke-dashoffset:0;stroke-opacity:1;marker:none;marker-start:none;marker-mid:none;marker-end:none" transform="matrix(.99798 0 0 .99726 335.339 -278.136)"/><path d="m638.5 856.242.033 2.846" style="color:#000;display:inline;overflow:visible;visibility:visible;opacity:1;fill:#fcef3c;fill-opacity:1;fill-rule:nonzero;stroke:#fff;stroke-width:.66949385;stroke-linecap:round;stroke-linejoin:round;stroke-miterlimit:4;stroke-dasharray:none;stroke-dashoffset:0;stroke-opacity:1;marker:none;marker-start:none;marker-mid:none;marker-end:none" transform="matrix(.99798 0 0 .99726 335.339 -278.136)"/><path d="m646.366 857.037.034 2.846" style="color:#000;display:inline;overflow:visible;visibility:visible;opacity:1;fill:#fcef3c;fill-opacity:1;fill-rule:nonzero;stroke:#fff;stroke-width:.66949385;stroke-linecap:round;stroke-linejoin:round;stroke-miterlimit:4;stroke-dasharray:none;stroke-dashoffset:0;stroke-opacity:1;marker:none;marker-start:none;marker-mid:none;marker-end:none" transform="matrix(.99798 0 0 .99726 335.339 -278.136)"/><path d="m634.783 864.747.033 2.846" style="color:#000;display:inline;overflow:visible;visibility:visible;opacity:1;fill:#fcef3c;fill-opacity:1;fill-rule:nonzero;stroke:#fff;stroke-width:.66949385;stroke-linecap:round;stroke-linejoin:round;stroke-miterlimit:4;stroke-dasharray:none;stroke-dashoffset:0;stroke-opacity:1;marker:none;marker-start:none;marker-mid:none;marker-end:none" transform="matrix(.99798 0 0 .99726 335.339 -278.136)"/><path d="m643.091 865.41.034 2.846" style="color:#000;display:inline;overflow:visible;visibility:visible;opacity:1;fill:#fcef3c;fill-opacity:1;fill-rule:nonzero;stroke:#fff;stroke-width:.66949385;stroke-linecap:round;stroke-linejoin:round;stroke-miterlimit:4;stroke-dasharray:none;stroke-dashoffset:0;stroke-opacity:1;marker:none;marker-start:none;marker-mid:none;marker-end:none" transform="matrix(.99798 0 0 .99726 335.339 -278.136)"/><path d="m637.523 874.513.033 2.847" style="color:#000;display:inline;overflow:visible;visibility:visible;opacity:1;fill:#fcef3c;fill-opacity:1;fill-rule:nonzero;stroke:#fff;stroke-width:.66949385;stroke-linecap:round;stroke-linejoin:round;stroke-miterlimit:4;stroke-dasharray:none;stroke-dashoffset:0;stroke-opacity:1;marker:none;marker-start:none;marker-mid:none;marker-end:none" transform="matrix(.99798 0 0 .99726 335.339 -278.136)"/><path d="m646.052 874.513.034 2.847" style="color:#000;display:inline;overflow:visible;visibility:visible;opacity:1;fill:#fcef3c;fill-opacity:1;fill-rule:nonzero;stroke:#fff;stroke-width:.66949385;stroke-linecap:round;stroke-linejoin:round;stroke-miterlimit:4;stroke-dasharray:none;stroke-dashoffset:0;stroke-opacity:1;marker:none;marker-start:none;marker-mid:none;marker-end:none" transform="matrix(.99798 0 0 .99726 335.339 -278.136)"/><path d="M632.23 842.575c2.597 9.739 6.66 3.143 7.724.507.955 1.963 1.599 4.304 4.405 4.489 1.874.123 3.68-2.018 4.327-5.076" style="fill:none;stroke:#fff;stroke-width:1px;stroke-linecap:butt;stroke-linejoin:miter;stroke-opacity:1" transform="matrix(.99798 0 0 .99726 335.339 -278.136)"/><path d="m637.008 840.464.034 2.847" style="color:#000;display:inline;overflow:visible;visibility:visible;opacity:1;fill:#fcef3c;fill-opacity:1;fill-rule:nonzero;stroke:#fff;stroke-width:.66949385;stroke-linecap:round;stroke-linejoin:round;stroke-miterlimit:4;stroke-dasharray:none;stroke-dashoffset:0;stroke-opacity:1;marker:none;marker-start:none;marker-mid:none;marker-end:none" transform="matrix(.99798 0 0 .99726 335.339 -278.136)"/><path d="m644.875 841.26.033 2.846" style="color:#000;display:inline;overflow:visible;visibility:visible;opacity:1;fill:#fcef3c;fill-opacity:1;fill-rule:nonzero;stroke:#fff;stroke-width:.66949385;stroke-linecap:round;stroke-linejoin:round;stroke-miterlimit:4;stroke-dasharray:none;stroke-dashoffset:0;stroke-opacity:1;marker:none;marker-start:none;marker-mid:none;marker-end:none" transform="matrix(.99798 0 0 .99726 335.339 -278.136)"/><path d="M1154.28 212.2c-43.085-17.426-69.463-33.617-87.874-52.146-8.048-8.1-12.175-13.883-15.979-21.948-6.13-12.998-9.562-28.034-10.49-53.867-.702-19.557-1.431-88.656-.917-122.189l.23-14.964 1.803 1.53c8.134 6.423 21.353 13.193 33.12 15.781 8.92 1.962 11.616 2.783 24.26 2.775 12.668-.008 17.332-.774 27.267-2.902 16.754-3.59 26.813-8.371 36.166-14.505.972-.624 1.948-1.384 1.948-1.384s.816.59 1.934 1.349c14.53 11.235 40.108 16.688 65.048 16.241 18.517-.331 33.582-4.481 47.526-11.44 3.997-1.995 9.635-5.796 10.901-6.866.378-.444-.075 1.24.15 6.708.657 16.034.28 124.115-1.084 131.298-1.074 14.683-1.693 30.748-6.733 44.192-1.731 4.483-4.473 10.647-7.58 15.523-7.583 11.899-22.092 25.832-42.782 38.653-14.716 9.119-34.634 19.32-58.255 28.255-4.769 1.804-8.73 3.532-8.927 3.525s-4.602-1.545-9.731-3.619z" style="fill:#ffcf19;fill-opacity:1;stroke:#000;stroke-width:3;stroke-miterlimit:4;stroke-dasharray:none;stroke-opacity:1" transform="translate(-946.991 115.673)"/><path d="M1131.304 200.704c-.196-33.294-.538-66.587-.87-99.88-29.41.066-58.82-.05-88.228-.162-.716-10.947-1.113-22.956-1.502-34.87l-.625-35.156c29.935.214 59.87.283 89.805.361-.3-24.666-.24-43.89-.757-66.085 3.347-.722 6.594-1.876 9.892-2.908 8.912-2.788 20.035-9.048 20.446-9.306l4.24-2.655 4.615 3.22c7.648 5.336 24.512 10.143 25.646 10.367l3.579.707c.06 22.72.12 43.94.18 66.66l90.327-.224c-.167 24.15-.103 47.093-2.32 70.051h-87.667c.43 32.913.983 65.83 1.069 98.747-3.88 1.907-24.893 11.327-35.216 14.895-11.024-4.468-20.745-8.211-32.614-13.762" style="fill:#d30214;fill-opacity:1" transform="translate(-946.991 115.673)"/><path d="M1117.86 9.631a1992 1992 0 0 0 0 53.12c.221 17.06.958 30.371 7.575 40.78 7.97 12.539 21.25 21.587 38.331 30.477 17.082-8.89 30.36-17.938 38.332-30.477 6.617-10.409 7.354-23.72 7.574-40.78.23-17.705.243-35.414 0-53.12z" style="fill:#fff;stroke:#000;stroke-width:1.6997" transform="translate(-946.991 115.673)"/><g style="fill:#d30214;fill-opacity:1;fill-rule:evenodd;stroke:#000"><path d="M139.34 132.593c-1.047-3.31-2.737-12.032-3.266-14.466-2.509-11.55-17.974-17.844-24.35-12.129-3.97 3.557.608 15.473.608 22.163s-8.48 25.085-8.48 33.447 1.9 50.105 1.9 61.812c0 11.706 12.41 21.896 18.655 30.565 6.882 9.554 13.403 16.652 15.059 30.037 3.53 16.464.908 19.297-2.47 38.39.909 3.943 75.244 17.351 106.683-.78-3.383-14.413-4.3-25.396-1.644-44.77 9.455-18.364 25.643-31.326 30.44-44.334 4.796-13.008 4.008-42.219 1.959-52.722-.989-5.065-3.714-35.911-3.883-37.238-.372-2.92-1.318-35.677-1.285-36.143.066-.919-.533-32.868-1.332-36.828-2.953-15.103-26.907-13.85-28.987-.112-1.141 3.588-1.214 44.665-1.313 45.36-.113.8.15 28.039.459 30.966-.747-3.322-.258-50.955-.183-57.966.183-17.178.842-50.845.197-53.38-.416-12.606-26.38-17.46-29.891.103-.874 4.37-1.399 54.289-1.526 52.872-.004 1.087-1.326 47.81-.907 48.026-.608 3.038 1.37-76.26 1.548-77.292.103-1.379.532-26.092.11-38.32-1.48-17.085-32.45-17.82-32.976 1.326-.012.758-1.304 33.758-1.262 33.976.072.376-.1 9.552-.144 9.995.052.479-1.325 65.04-.743 67.727-.141-3.73.11-29.689.138-30.56.027-.39 1.69-65.733-.199-69.39-3.381-10.331-25.812-11.905-28.66 3.226-.965 1.178-1.43 30.82-1.447 32.24-.019 1.56-1.105 33.34-1.244 35.203-.031.808-.207 12.14-.154 12.755-.627 11.546-1.41 16.24-1.41 16.24z" style="fill:#d30214;fill-opacity:1;stroke-width:2.44264007" transform="matrix(-.28589 0 0 .2825 271.122 134.21)"/><path d="M139.326 129.772c2.943 12.22-1.833 21.497-1.833 28.28s3.132 21.814 3.132 21.814l1.531 2.22s22.469 3.097 30.947 9.88c8.479 6.783 18.653 39.002 15.262 61.046" style="fill:#d30214;fill-opacity:1;stroke-width:2.45948005" transform="matrix(-.28589 0 0 .2825 271.122 134.21)"/></g><g style="fill:#c00"><path d="M189.611 78.522a3 3 0 0 1 .442.002 2 2 0 0 1-.222.007 2 2 0 0 1-.22-.007z"/><path d="M189.844 78.453a1 1 0 0 1 .198-.054c.008.004.011.032.011.063v.055l-.198-.001-.198-.001.186-.062zm149.84 129.501h.029v.084h-.029Zm.246-3.387q0-.05.008-.033a.14.14 0 0 1 0 .057q-.007.025-.008-.026zm.001-.14c0-.054.003-.078.008-.053a1 1 0 0 1 0 .098c-.003.029-.008.007-.008-.045"/></g><path d="M523.766 464.054c.543 35.494 2.608 63.191 20.633 84.849 21.712 26.088 57.885 44.915 104.416 63.412 46.53-18.497 82.702-37.324 104.415-63.412 18.024-21.658 20.031-49.355 20.632-84.849.624-36.84.663-83.657 0-120.498-38.7 29.193-103.07 19.32-125.369.855-30.897 21.113-89.039 29.32-124.727-1.425-.752 36.84-.563 84.228 0 121.067z" style="fill:#01491a;fill-opacity:1;stroke:#000;stroke-width:3;stroke-miterlimit:4;stroke-dasharray:none" transform="matrix(.9991 0 0 .99734 334.756 -279.3)"/><path d="m-393.092 205.18 1.81-.791 3.278 2.826 1.47 5.766 1.13 5.54 3.052 10.853 6.784 22.724 11.531 38.89 2.148 8.82-2.035 3.052-2.26-3.279-2.149-8.479-10.062-32.673-6.67-22.498-4.409-15.714-2.826-8.366-1.922-4.862zm-13.906 4.41 1.018-1.131 3.844.113 1.583 4.07 1.582 5.2 4.636 15.941 9.835 31.995 4.975 17.975 5.992 21.48 3.844 10.854 1.13 7.688-1.809 2.26-2.374-.904-1.922-5.765-3.052-11.871-7.349-24.872-4.974-15.602-8.027-27.924-4.07-15.037-2.827-7.687zm-8.253 1.695 1.131 2.148.34 4.522.564 4.862 2.035 7.235 6.558 18.994 5.087 17.862 8.027 26.229 5.992 22.159 5.313 17.636 2.94 10.514-1.13 2.827-2.262 1.017-1.243-5.766-3.505-9.835-3.73-13.68-8.254-27.811-7.575-24.646-4.974-17.75-7.01-23.29-.565-4.522-3.052-3.73-.34-4.183 2.375-1.922zm-18.993-.565 2.261.565 2.035 3.505.226 6.218 3.166 8.027 7.462 28.377 4.409 11.87 4.522 17.524 8.253 26.003 7.01 26.115 7.574 26.229 1.13 5.087-2.487 2.375-2.035-5.427-4.522-15.15-9.044-32.785-6.218-20.576-3.392-12.436-8.14-27.812-4.635-14.47-2.826-10.515-2.714-9.836-3.391-5.426-1.922-5.088zm-18.654.565 2.714-.226 3.278 3.166-.452 3.957.791 5.426 3.279 10.514 3.392 10.401 7.348 26.116 4.41 14.471 11.305 38.1 2.26 6.33 2.714 9.61 6.896 22.95 3.505 14.81 4.41 13.793.904 4.862-2.714 3.617-1.695-4.07-6.105-19.219-5.2-18.767-3.958-11.758-6.67-23.289-3.73-12.775-6.558-24.646-4.296-12.662-6.67-23.177-3.844-13.792-2.6-6.784-1.696-8.366-3.053-6.557zm-15.375-1.13 1.922-.226 2.826 2.148v4.748l.565 5.427 3.618 11.305 4.748 14.471 5.2 16.845 7.35 25.55 3.956 12.663 6.105 19.897 8.027 28.038 6.67 22.498 8.367 29.168 4.296 11.193-1.922 3.504-4.183-1.696-.905-5.991-5.087-15.828-4.749-14.923-8.818-30.977-6.218-20.35-10.514-35.726-7.575-25.324-4.861-17.184-2.713-7.801-2.261-9.836-3.844-13.114-3.053-4.748zm89.2-4.749-1.13-1.695 1.13-3.166 2.261-.34 2.713 3.506 2.375 9.044 10.175 35.612 8.14 26.794.565 4.975-.452 1.582h-2.035l-1.696-3.73-2.827-9.27-9.948-33.804-6.218-21.933z" style="fill:#f3ae00;fill-opacity:1;fill-rule:evenodd;stroke:none;stroke-width:1px;stroke-linecap:butt;stroke-linejoin:miter;stroke-opacity:1" transform="matrix(.50592 .02237 -.0224 .50503 1192.157 44.984)"/><path d="m-393.157 219.337-25.115 6.485c-6.79 1.27-13.851-1.14-21.508 3-4.383-.063-7.373 2.995-9.426 6-.453 0-2.763 1.258-3.862 3.48l-8.449 19.923c-2.896 5.447-6.466 17.093-7.253 23.937-.316 2.75-.703 7.635-1.056 10.66s-.622 7.024-.598 8.4c.095 5.503.818 25.396 1.21 28.68 3.049 18.964 11.974 36.862 21.533 53.3 5.25 8.872 22.591 25.202 26.713 25.215.643.002 1.866-2.943 2.227-4.59l10.077-23.327 6.751-14.967c1.73-3.424 3.753-8.71 5.175-12.562l7.837-19.944 9.207-21.464 7.21-19.244 8.609-21.78 6.741-16.282c2.162-4.027 3.1-8.654 4.874-12.903 4.467-10.095 4.48-10.199 1.631-13.583-4.923-5.851-2.841-10.292 3.132-14.074 2.812-1.78 1.315-2.582-.445-4.752-.989-1.217-2.697-2.241-3.797-2.275-3.536-.108-11.054 1.287-14.828 3.257-3.766 1.307-8.181 1.692-11.982 3.106-5.03 1.872-9.463 4.765-14.608 6.304m-39.582 239.82c-5.214-1.393-9.447-8.915-7.564-13.441 1.394-3.352 3.162-5.259 6.025-6.497 2.407-1.041 2.329-1.15-3.5-4.828-3.279-2.07-8.943-6.69-12.588-10.267-5.568-5.464-6.768-7.382-8.35-6.535-2.655 1.42-7.313 1.371-9.052-1.112-1.86-2.656-.848-7.073.98-9.94 1.297-2.035.043-2.704-3.675-8.215-11.635-17.242-21.431-39.797-25.387-58.447-3.899-18.383-4.384-54.78-.958-71.854l1.665-8.3-2.215-1.794c-4.487-3.633-.712-11.896 5.314-12.986 4.063-.735 6.087-9.178 6.21-19.62.085-7.145-.252-8.684-3.155-14.409-1.788-3.525-2.738-7.35-2.697-8.5.125-3.576 4.48-7.61 8.372-9.536 3.445-1.705 2.083-2.496 1.51-5.544-.671-3.583 1.874-5.751 5.378-9.256 5.986-5.986 8.962-5.312 14.922.563 2.57 2.533 8.72 6.382 14.86 9.488 13.117 6.632 20.773 7.845 35 6.251 12.965-1.452 15.339-2.266 32.485-8.347 12.524-4.443 15.8-4.828 24.55-5.36 8.955-.983 17.267.684 24.845 5.234 5.832 3.502 10.03 7.921 13.72 13.66 1.397 2.759 2.292 7.294 2.578 10.384.286 3.087 1.665 8.372 2.675 10.572 3.32 7.236 3.302 7.6.4 12.783-2.634 4.704-3.498 8.384-11.51 46.082-2.112 9.935-4.076 19.675-4.657 21.84s-2.3 8.596-3.43 14.096c-5.345 26.056-6.943 35.31-7.761 39-.488 2.2-2.106 8.05-3.206 13s-2.6 12.23-3.237 16.08c.82 11.168-4.56 20.793-7.008 31.289-1.965 12.88-2.537 14.707-14.04 12.038-5.166-1.2-13.796-1.393-13.804.365-.022 4.722-2.42 9.996-8.443 15.903-3.604 3.534-7.052 6.025-7.368 6.025s-1.76 1.616-3.209 3.004c-3.237 3.101-11.08 6.706-13.64 5.808-1.037-.364-2.15-1.417-2.475-2.34-.523-1.49-1.4-2.277-4.693-.04-3.684 2.504-10.049 4.722-13.867 3.702" style="fill:#f3ae00;fill-opacity:1;stroke:none" transform="matrix(.50592 .02237 -.0224 .50503 1192.157 44.984)"/><path d="M-402.444 364.537c1.73-3.425 3.353-7.91 4.776-11.762 1.224-2.52.682-4.348.01-6.944-5.39-20.605-33.534-117.961-34.494-118.922-.246-.245-1.356.04-2.467.635-1.11.594-3.672 1.081-5.692 1.081-2.506 0-3.533.397-3.233 1.25.242.687 9.392 31.522 20.333 68.52 14.301 48.36 19.851 66.494 20.767 66.142m.762 2.98c-.85 1.34 1.5 11.908 4.1 18.45 1.277 3.21 2.118 2.364 3.32-3.342.404-1.925 1.535-5.078 2.51-7.007 1.54-3.042 1.609-4.038.523-7.5a578 578 0 0 1-2.57-8.493c-1.447-4.938-2.971-7.379-2.971-4.76zm-31.588 91.442c-5.214-1.392-9.447-8.914-7.564-13.44 1.394-3.352 3.162-5.259 6.025-6.497 2.407-1.041 2.329-1.149-3.5-4.828-3.278-2.07-8.943-6.69-12.588-10.267-5.567-5.464-6.928-6.343-8.51-5.496-2.655 1.42-7.153.332-8.892-2.15-1.86-2.657-1.887-7.074-.059-9.941 1.297-2.035 1.083-2.704-2.636-8.215-11.634-17.242-21.431-39.797-25.387-58.447-3.899-18.383-4.384-54.78-.958-71.854l1.665-8.3-2.215-1.794c-4.487-3.633-1.43-13.015 4.595-14.105 4.062-.735 6.806-8.059 6.93-18.5.084-7.146-.253-8.684-3.156-14.41-1.788-3.525-3.217-7.35-3.177-8.5.125-3.576 3.362-8.01 7.253-9.935 3.445-1.706 3.682-2.097 3.11-5.145-.672-3.583.514-6.55 4.018-10.055 5.986-5.986 11.04-6.032 17-.157 2.57 2.533 8.64 6.463 14.78 9.568 13.117 6.632 20.134 7.925 34.36 6.331 12.966-1.452 15.26-2.026 32.406-8.107 12.524-4.443 15.88-5.227 24.63-5.76 8.955-.983 18.306.844 25.884 5.394 5.832 3.502 10.43 8.8 14.12 14.54 1.397 2.758 2.772 7.534 3.058 10.623.285 3.087 1.345 7.413 2.355 9.613 3.32 7.236 3.382 9.04.48 14.222-2.634 4.704-3.498 8.144-11.51 45.842-2.112 9.935-4.316 19.835-4.897 22s-1.981 8.436-3.11 13.936c-5.345 26.056-7.263 35.31-8.081 39l-2.886 13c-1.1 4.95-2.52 12.15-3.157 16s-2.187 10.6-3.445 15-2.861 11.766-3.563 16.369c-1.965 12.88-4.376 14.707-15.878 12.038-5.166-1.2-12.997-.353-13.006 1.404-.022 4.722-2.658 9.357-8.682 15.264-3.605 3.534-6.812 6.425-7.128 6.425s-1.76 1.136-3.21 2.524c-3.236 3.101-11.88 6.386-14.44 5.488-1.036-.364-2.15-1.416-2.474-2.34-.523-1.49-1-1.397-4.293.84-3.684 2.504-10.449 3.842-14.267 2.822m10.566-4.336c6.816-1.893 12.421-10.684 13.79-21.626 1.486-11.88 1.357-15.053-.64-15.788-.944-.348-3.516-1.728-5.716-3.067s-5.395-3.078-7.1-3.863-5.273-3.39-7.928-5.79c-7.553-6.828-8.861-8.233-16.972-18.22-.55-.678-2.075-3.237-3.39-5.688-17.175-32.024-20.171-42.408-21.613-74.899-.64-14.425 2.964-35.992 8.113-48.54l3.685-8.982-2.124-6.517c-1.169-3.585-2.661-8.445-3.316-10.8-.962-3.46-1.88-4.585-4.773-5.85-1.97-.862-5.27-2.45-7.332-3.531s-3.761-1.824-3.775-1.651-.235 3.239-.49 6.814c-.256 3.575-1.298 8.958-2.315 11.963-1.814 5.355-1.812 5.53.089 8.752 2.293 3.885 2.105 12.68-.71 33.285-3.803 27.823.429 57.094 12.143 84 3.78 8.683 9.006 18.237 14.768 27 3.436 5.225 6.52 10.634 6.855 12.02.564 2.337-.783 7.845-2.617 10.706-.821 1.28 12.11 15.274 14.114 15.274.575 0 1.64.578 2.366 1.284s3.572 2.568 6.322 4.139c2.75 1.57 5.787 3.537 6.75 4.37 2.174 1.885 2.26 5.554.178 7.636-1.76 1.76-4.428 2.104-4.428.571 0-.55.645-1 1.433-1 1.566 0 3.042-3.422 2.12-4.914-1.185-1.917-6.573-2.303-9.094-.651-3.634 2.38-3.48 8.762.29 12.081 2.998 2.638 5.824 3.008 11.317 1.482m18.775-1.765c8.646-4.425 22.159-17.11 22.159-20.801 0-2.36-6.968-1.697-11.5 1.094-4.172 2.57-5.5 2.986-5.499 1.724.002-1.769 9.967-6.25 13.896-6.25 3.758 0 5.313-1.134 3.278-2.392-1.042-.644-12.35 2.238-13.625 3.472-.523.506-1.635.92-2.472.92-3.568 0 2.978-4.276 8.553-5.588 7.113-1.674 20.871-1.83 25.295-.288 2.127.741 3.562.787 4.215.135 3.096-3.096-22.244-4.383-34.788-1.766-9.65 2.013-10.287 2.326-10.92 5.367-1.754 8.437-2.761 11.97-4.496 15.778-2.548 5.593-2.558 11.418-.02 11.345.32-.009 2.986-1.247 5.924-2.75m9.159-16.244c0-1.134 3.772-3.235 5.033-2.804.507.173-.418 1.082-2.056 2.018-1.637.937-2.977 1.29-2.977.786m-6.54-13.923c.932-1.51 10.959-4.066 15.944-4.066 2.528 0 4.596-.193 4.596-.428 0-.33 3.445-13.125 5.405-20.072.155-.55.613-2.35 1.016-4 .404-1.65 1.109-3.9 1.566-5 1.276-3.068 2.167-5.711 3.036-9 .827-3.133 6.133-22.09 8.117-29 .632-2.2 1.714-5.8 2.406-8s1.48-5.35 1.754-7c.273-1.65 2.084-7.725 4.025-13.5s4.675-14.775 6.075-20 3.694-13.55 5.098-18.5c1.405-4.95 2.77-9.982 3.035-11.182.49-2.224 5.214-16.584 7.835-23.818 1.335-3.685 2.06-11.015 1.756-17.75-.257-5.687-7.815-8.89-12.643-5.36-1.644 1.202-1.738 1.751-.691 4.047 2.751 6.04 1.332 14.963-5.26 33.063-3.064 8.416-4.214 12.944-3.85 15.161.405 2.458.08 3.397-1.462 4.222-2.085 1.116-7.218 12.653-7.218 16.223 0 1.146-1.256 4.404-2.79 7.24-4.317 7.973-5.67 12.927-4.253 15.574 1.334 2.492.227 4.57-2.978 5.587-1.044.331-2.136 1.97-2.525 3.788-.377 1.763-1.14 3.77-1.696 4.46s-.972 3.216-.924 5.613c.068 3.405-.45 4.862-2.373 6.669-1.354 1.271-2.461 2.914-2.461 3.65 0 .737-.39 2.121-.866 3.077-2.102 4.215-3.433 9.045-3.553 12.893-.089 2.854-.786 4.734-2.227 6-2.478 2.177-7.354 15.13-7.354 19.533 0 1.725-.804 3.785-1.83 4.693-1.733 1.53-7.131 15.828-8.635 22.867-.603 2.823-.429 3.25 1.326 3.25 1.112 0 2.28-.42 2.598-.934m46.067-6.316c1.669-4.985 2.463-8.065 4.446-17.25.475-2.2 1.59-7.15 2.478-11 1.82-7.896 4.65-21.117 7.064-33 1.482-7.299 4.436-20.892 9.452-43.5 1.037-4.675 2.843-13.45 4.014-19.5 1.17-6.05 2.768-13.7 3.55-17 1.997-8.427 4.168-18.463 6.322-29.215l1.846-9.215-2.306-3.866c-1.567-2.63-3.614-4.38-6.397-5.473-3.814-1.499-4.06-1.493-3.637.08 2.13 7.906 1.48 12.202-5.326 35.189-2.85 9.625-5.392 18.625-5.648 20-.257 1.375-2.067 7.675-4.024 14s-3.91 12.85-4.342 14.5c-2.704 10.344-8.409 29.77-9.985 34-1.025 2.75-2.335 6.8-2.912 9-.578 2.2-3.082 10.975-5.565 19.5s-4.814 17.075-5.18 19-1.887 7.325-3.38 12-2.996 9.68-3.342 11.12l-.628 2.622 9.204 1.18c5.063.65 9.407 1.383 9.654 1.63 1.479 1.479 3.101-.2 4.642-4.802m-102.305-2.627c3.58-3.794 4.503-9.692 2.073-13.254-11.197-16.41-17.917-28.614-23.606-42.869-2.524-6.325-4.844-13.248-5.155-15.385s-1.435-8.212-2.497-13.5c-2.65-13.2-3.505-28.925-2.102-38.661 1.825-12.67 3.014-21.536 3.68-27.454.973-4.531.915-8.565-.472-13-2.72-5.772-9.67-4.914-12.154 1.5-1.052 2.715 2.69 7.011 4.674 5.365.735-.61 1.337-1.955 1.337-2.987 0-2.156 1.297-2.452 2.751-.628 1.497 1.878 2.09 11.254 1.047 16.562-3.713 18.91-4.108 41.804-.986 57.188 1.172 5.775 2.333 12.3 2.58 14.5s1.095 6.025 1.884 8.5a584 584 0 0 1 2.777 9c2.134 7.16 9.75 21.807 15.858 30.5 8.373 11.915 8.988 13.014 9.672 17.294.583 3.647.435 3.985-2.023 4.601-3.488.876-4.395.192-3.81-2.871.652-3.409-1.943-3.365-4.65.077-1.89 2.401-1.932 2.824-.548 5.5 2.02 3.904 5.997 3.913 9.67.022m50.21-1.873c-.641-2.91-5.742-20.633-7.432-25.821-.55-1.69-1-3.962-1-5.05s-.4-2.407-.89-2.929c-.49-.523-2.584-7.25-4.655-14.95-2.07-7.7-4.14-14.675-4.6-15.5s-2.68-8.21-4.938-16.413-4.488-15.627-4.957-16.5c-.47-.873-3.191-9.687-6.049-19.587s-6.747-23.175-8.644-29.5-3.932-13.3-4.523-15.5-1.344-4.225-1.675-4.5-1.181-2.75-1.89-5.5c-2.87-11.151-6.355-21.5-7.24-21.5-1.195 0-1.21 2.51-.03 4.764 1.207 2.303 5.09 16.607 5.09 18.749 0 .926.657 3.103 1.46 4.836s2.353 6.301 3.445 10.151c4.073 14.355 10.222 35.241 12.512 42.5 1.301 4.125 3.102 10.2 4.001 13.5s2.116 7.35 2.704 9c.587 1.65 2.643 8.85 4.568 16 1.926 7.15 5.18 18.4 7.234 25s4.74 15.825 5.97 20.5 2.859 9.85 3.619 11.5 2.354 6.375 3.542 10.5c2.433 8.446 2.68 9 4.024 9 .528 0 .687-1.238.354-2.75m-6.293-4.736c-.893-2.483-1.931-4.514-2.308-4.514-.688 0-4.062 6.145-3.585 6.53 1.321 1.07 6.386 3.197 6.881 2.891.35-.216-.095-2.424-.988-4.907m10.654-.264c2.338-6.21 2.887-8.827 2.15-10.25-.426-.825-1.753-4.787-2.946-8.804s-2.634-7.15-3.199-6.962-1.843 2.491-2.84 5.117c-1.66 4.371-1.688 5.214-.34 9.962.81 2.853 1.874 6.087 2.364 7.187s1.176 3.012 1.522 4.25c.846 3.017 2.033 2.836 3.289-.5m-56.214-2.68c-.364-1.939-2.2-5.54-4.08-8.002-7.925-10.383-14.38-21.954-17.898-32.083-1.525-4.392-3.147-8.706-3.604-9.587-1.232-2.38-3.73-13.144-5.535-23.85-.877-5.199-1.829-9.832-2.116-10.297-.898-1.453-.414-35.31.577-40.407 1.544-7.94 2.268-20.344 1.186-20.344-1.255 0-1.753 1.67-3.578 12-.826 4.675-1.681 9.4-1.9 10.5-1.761 8.83-1.629 23.12.357 38.5 1.172 9.075 2.59 18.3 3.15 20.5 2.49 9.766 3.352 12.575 6.727 21.938 1.97 5.466 5.274 12.666 7.343 16s5.23 8.762 7.026 12.062 5.178 7.924 7.516 10.276 4.25 5.015 4.25 5.917.279 1.361.62 1.02.323-2.205-.041-4.144m39.92-.564c.361-1.647 1.222-3.334 1.913-3.75 1.129-.68-.829-8.398-4.63-18.256-.318-.825-2.268-8.025-4.334-16s-5.017-18.453-6.559-23.285c-1.542-4.831-3.754-12.256-4.914-16.5s-3.476-11.99-5.145-17.215c-1.67-5.225-4.123-13.325-5.453-18s-2.81-9.4-3.29-10.5c-.889-2.041-5.369-17.714-6.525-22.827l-.639-2.827-2.401 4.516c-2.896 5.447-6.147 16.294-6.934 23.138-.316 2.75-.863 7.475-1.216 10.5-.352 3.025-.621 6.625-.597 8 .095 5.504 1.217 25.716 1.61 29 3.048 18.965 11.893 36.063 21.452 52.5 5.25 8.873 21.712 24.483 25.833 24.496.644.002 1.467-1.343 1.829-2.99m20.865-12.256c-.363-2.338-2.2-9.65-4.085-16.25-1.883-6.6-4.992-17.625-6.907-24.5s-4.133-14.315-4.927-16.533c-.795-2.219-1.445-4.812-1.445-5.764s-.437-2.512-.972-3.467c-1.038-1.854-8.407-25.417-10.55-33.736-1.73-6.713-5.947-20.99-9.454-32-1.576-4.95-4.044-13.244-5.484-18.432s-3.236-10.812-3.99-12.5c-.754-1.687-1.826-4.418-2.381-6.068-.556-1.65-1.047-2.436-1.09-1.746-.085 1.35 4.807 20.252 5.554 21.462.248.401 1.347 4.23 2.441 8.507s3.538 12.727 5.43 18.777c4.378 14.001 18.982 64.942 20.212 70.5.304 1.375.887 2.95 1.296 3.5.408.55 1.506 4.15 2.44 8 1.581 6.526 3.887 14.219 10.189 34 1.401 4.4 2.717 8.562 2.922 9.25.873 2.918 1.408.913.801-3m-10.789-11.072c1.625-5.155 1.608-5.553-.553-12.75-1.226-4.085-2.62-8.553-3.097-9.928s-2.47-8.35-4.43-15.5-3.983-13.9-4.498-15-2.08-6.275-3.48-11.5-3.474-12.65-4.61-16.5c-1.138-3.85-2.285-7.9-2.55-9-.266-1.1-.854-2.9-1.307-4-.454-1.1-2.52-8.075-4.592-15.5s-4.082-13.95-4.468-14.5-1.244-3.25-1.907-6c-2.326-9.648-4.233-15.5-5.05-15.5-.453 0-1.723 1.818-2.823 4.04-1.54 3.113-1.8 4.776-1.13 7.25 2.358 8.704 15.21 52.465 15.923 54.21 1.685 4.132 5.705 18.065 8.077 28 .526 2.2 1.364 4.9 1.864 6 1.236 2.722 4.541 13.595 6.536 21.5 1.787 7.082 3.354 12.379 4.587 15.5.435 1.1 1.557 4.475 2.495 7.5 2.719 8.773 2.771 8.79 5.013 1.678m19.883-18.802c-.893-4.057-2.901-11.201-4.462-15.877-2.586-7.746-4.503-14.456-8.572-29.999-.792-3.025-2.091-7.3-2.889-9.5s-3.05-9.85-5.006-17-4.001-13.781-4.544-14.736-.985-3.003-.985-4.55c0-1.548-.372-3.242-.827-3.764-.455-.523-2.079-5.45-3.608-10.95s-3.783-12.7-5.01-16-3.056-9.141-4.066-12.98-2.007-6.466-2.216-5.839c-.392 1.175 6.051 26.246 7.663 29.819.496 1.1 2.696 8.3 4.89 16 4.16 14.609 7.616 26.47 11.652 40 1.312 4.4 3.25 10.925 4.304 14.5 10.315 34.96 14.607 48.944 14.924 48.628.206-.207-.355-3.695-1.248-7.752m3.542-1.376c0-1.375.34-2.5.756-2.5.948 0 3.239-7.196 3.258-10.234.02-3.055-4.17-15.766-5.196-15.766-.45 0-.818.171-.818.38 0 .21-1.08 3.249-2.398 6.753-2.16 5.738-2.272 6.77-1.125 10.37.7 2.198 1.838 6.134 2.528 8.747 1.347 5.098 2.995 6.337 2.995 2.25m5.462-23.582c-.877-3.53-1.996-7.768-2.487-9.418s-1.631-5.475-2.534-8.5a430 430 0 0 1-2.965-10.5c-.729-2.75-2.287-8.15-3.462-12-2.867-9.391-4.3-14.244-7.525-25.5-1.497-5.225-3.978-13.325-5.513-18s-4.494-13.9-6.576-20.5-3.967-11.153-4.19-10.119.036 2.835.579 4 2.654 8.194 4.693 15.619c2.04 7.425 4.087 14.625 4.55 16s1.149 4.075 1.523 6 .959 3.95 1.3 4.5c.34.55 1.36 3.7 2.266 7s3.733 12.975 6.281 21.5a6575 6575 0 0 1 7.715 26c1.694 5.775 3.71 11.978 4.482 13.784.77 1.806 1.4 4.094 1.4 5.083 0 2.012 1.295 3.752 1.758 2.363.164-.492-.42-3.783-1.295-7.312m-9.204-4.193c1.853-5.56 1.852-5.758-.084-12.437-7.99-27.56-10.502-36.042-11.19-37.788-.434-1.1-2.444-7.85-4.468-15-6.06-21.412-12.618-41.5-13.549-41.5-.48 0-2.132.541-3.67 1.202-1.538.662-2.89 1.241-3.002 1.289-.191.08 1.49 6.588 5.042 19.509.832 3.025 2.194 7.525 3.028 10 1.596 4.735 4.771 15.745 7.21 25 .798 3.025 1.873 6.4 2.39 7.5.938 1.996 9.779 32.761 10.777 37.5.29 1.375.864 2.95 1.277 3.5s1.068 2.486 1.457 4.303c.98 4.586 2.568 3.564 4.782-3.078m15.708-5.161c.045-2.573-2.994-14.849-3.926-15.861-.404-.439-1.672 1.458-2.817 4.214l-2.083 5.012 2.529 8.234 2.529 8.234 1.867-3.948c1.027-2.172 1.882-4.82 1.901-5.885m4.023-5.814c-.006-.688-.72-3.5-1.588-6.25-.867-2.75-3.584-11.975-6.038-20.5s-5.133-17.75-5.953-20.5-1.879-6.35-2.351-8c-2.223-7.76-7.55-25.009-10.64-34.446-1.88-5.746-3.42-10.947-3.42-11.56 0-.611-.652-1.985-1.45-3.053-1.382-1.85-1.424-1.824-.909.559 2.365 10.935 16.249 61.074 17.307 62.5.409.55 1.314 3.25 2.012 6 2.158 8.494 4.254 15.908 5.09 18 .439 1.1 1.548 4.7 2.465 8s2.067 7.012 2.555 8.25c.947 2.4 2.938 3.082 2.92 1m-10.684-10.409c1.744-4.516 1.844-3.967-4.459-24.341-1.106-3.575-2.353-7.85-2.77-9.5-.836-3.306-2.923-9.884-4.124-13-1.876-4.868-2.963-8.65-6.037-21-.548-2.2-2.169-7.713-3.602-12.25-2.706-8.566-3.947-9.7-7.648-6.994-1.618 1.183-1.607 1.6.194 7.25a542 542 0 0 1 3.502 11.494c.875 3.025 2.987 10.225 4.692 16s3.324 11.625 3.599 13c.274 1.375.87 3.4 1.322 4.5s1.804 5.375 3.002 9.5a880 880 0 0 0 4.6 15.2c1.332 4.235 2.601 8.51 2.82 9.5 1.612 7.262 2.317 7.354 4.909.641m13.608-2.459c1.108-3.473.962-5.068-1.44-15.632-.785-3.456-2.028-2.703-3.982 2.412-1.746 4.571-1.737 4.798.457 11.608 2.349 7.294 3.076 7.53 4.965 1.612m2.583-14.132c-1.721-6.83-7.377-26.461-11.45-39.75a1900 1900 0 0 1-5.706-19c-1.368-4.675-2.853-9.4-3.3-10.5s-1.42-4.02-2.165-6.488c-.795-2.638-1.493-3.755-1.695-2.711-.311 1.619.827 6.113 4.364 17.229.706 2.216 1.606 5.816 2 8 .396 2.183 1.089 4.688 1.54 5.565s1.02 2.695 1.264 4.039c.243 1.344 2.33 8.5 4.635 15.905 2.306 7.403 5.066 16.611 6.134 20.461s2.433 8.237 3.034 9.75c1.856 4.675 2.74 3.033 1.345-2.5m-7.756-9.114c-.444-4.143-4.523-18.702-9.702-34.636-1.52-4.675-4.252-13.817-6.07-20.316-3.257-11.633-3.348-11.805-5.886-11.168-3.62.908-3.644.99-1.853 6.257.884 2.6 2.374 7.427 3.311 10.727s3.203 10.95 5.035 17 4.49 15.275 5.908 20.5 3.537 12.138 4.71 15.361l2.134 5.862 1.428-2.725c.854-1.63 1.25-4.388.985-6.862m13.838-.45c.777-3.852-1.411-15.408-2.828-14.936-.53.176-1.952 2.78-3.161 5.785-1.896 4.71-2.021 5.81-.909 7.965.71 1.375 1.297 3.317 1.305 4.316s.543 2.798 1.188 4c1.158 2.158 1.187 2.149 2.454-.816.706-1.65 1.583-4.491 1.951-6.313m3.961-7.436c-.382-1.238-1.068-3.825-1.524-5.75-.457-1.925-2.902-10.475-5.433-19a4892 4892 0 0 1-8.715-29.75c-2.262-7.838-4.543-14.25-5.07-14.25-1.158 0-.284 4.488 2.338 12 1.056 3.025 2.824 9.1 3.929 13.5 1.868 7.441 2.958 10.984 4.92 16 .431 1.1 2.234 7.4 4.007 14 3.179 11.83 4.519 15.5 5.66 15.5.32 0 .27-1.013-.112-2.25m-10.175-7.033c.9-2.356 1.636-5.107 1.636-6.113 0-1.668-5.921-23.651-7.973-29.604-.475-1.375-2.118-6.663-3.652-11.75-2.927-9.703-3.97-10.733-7.934-7.826-1.915 1.405-1.91 1.535.357 9.75 1.264 4.58 2.972 10.801 3.795 13.826a625 625 0 0 0 2.372 8.5c.481 1.65 2.29 7.95 4.018 14 1.73 6.05 3.326 11.562 3.549 12.25.769 2.371 2.201 1.237 3.832-3.033m14.224-7.717c.89-3.025 1.78-6.333 1.977-7.352s.782-2.369 1.299-3 1.461-4.614 2.099-8.85c.887-5.896.882-8.219-.023-9.91-1.482-2.77-1.41-2.891-7.923 13.375-4.846 12.102-4.94 12.533-3.572 16.333.773 2.147 1.688 4.791 2.034 5.876.837 2.626 1.946.88 4.109-6.472m-5.518-13.26c.618-2.296 1.927-5.99 2.909-8.208 4.467-10.094 4.48-10.198 1.631-13.583-4.923-5.851-4.36-11.011 1.613-14.793 2.813-1.781 2.834-1.863 1.074-4.032-.988-1.218-2.697-2.242-3.797-2.276-3.536-.108-10.894 1.766-14.668 3.737l-3.669 1.915 1.99 6.5c1.096 3.575 2.461 8.3 3.035 10.5s1.396 5.125 1.827 6.5c.43 1.375 1.788 6.202 3.017 10.727s2.611 7.994 3.073 7.708 1.347-2.398 1.965-4.695m-97.758-15.858c.982-2.266 1.65-4.23 1.486-4.368-.905-.755-7.798-1.48-7.798-.82 0 1.287 3.457 9.298 4.014 9.302.283.002 1.317-1.85 2.298-4.114m141.487-6.435c.402-4.119-2.362-7.393-9.134-10.82-12.64-6.394-26.173-5.645-30.162 1.67-1.105 2.145-1.666 4.289.805 6.433 2.582 2.552 2.903 2.635 4.077 1.062 8.113-5.809 20.169-3.216 27.654 2.75 3.233 3.441 6.365 2.934 6.76-1.095m-140.515-3.864c-.33-1.696-1.027-3.365-1.55-3.71s-1.179-2.64-1.457-5.103c-.454-4.03-.275-4.537 1.786-5.076 3.31-.866 7.671 2.04 8.17 5.445.228 1.548.086 3.162-.315 3.588-.401.425-.21 2.348.426 4.273 1.04 3.148 1.558 3.526 5.156 3.76 6.654.435 7.334-.72 4.196-7.127-1.483-3.03-1.737-5.735-1.737-6.307 0-1.796 3.631-4.419 5.65-3.672 2.809 1.04 3.359 2.327 3.376 7.905.008 2.782.603 5.862 1.32 6.844 1.212 1.657 1.574 1.674 5 .243 2.033-.85 3.696-1.904 3.698-2.345.002-.44-1.006-2.706-2.24-5.034l-2.242-4.233 2.149-2.148c3.104-3.105 6.664-1.961 8.06 2.589.596 1.939.847 4.425.56 5.525-.42 1.605-.031 2 1.97 2 4.053 0 4.986-2.05 3.217-7.064-1.897-5.379-1.366-6.936 2.37-6.936 3.535 0 4.759 1.347 5.675 6.25.713 3.819 2.409 4.713 5.376 2.834 1.192-.755 1.176-1.453-.112-4.735-2.024-5.158-.81-8.303 3.214-8.327 1.88-.012 5 5.335 5 8.567 0 2.002.307 2.264 1.75 1.492.962-.514 2.502-1.165 3.42-1.446 1.522-.466 1.543-.937.236-5.28-1.326-4.408-1.295-4.91.407-6.612 1.784-1.784 1.914-1.785 4.095-.019 1.239 1.003 2.583 3.388 2.987 5.3.852 4.03.989 4.038 10.795.601 8.137-2.852 11.679-2.474 15.537 1.655 1.826 1.955 3.649 2.562 9.273 3.086 3.85.36 8.687.923 10.75 1.253 3.57.57 3.75.467 3.75-2.15 0-2.149-2-7.175-3.616-9.802-1.056-2.08-2.553-3.893-4.136-5.656-2.265-2.194-6.38-4.77-10.248-6.17-8.934-3.233-21.574-1.72-39.02 4.67-30.068 11.014-49.33 10.971-73.855-.163-4.056-1.841-7.685-3.348-8.064-3.348s-1.614 1.687-2.743 3.75c-3.855 7.04-9.174 15.746-11.248 18.408-1.138 1.462-2.07 3.375-2.07 4.25 0 1.241 1.705 3.514 3.262 4.745 1.735 1.541 2.54 2.355 4.238 2.514 1.897 0 1.881-2.579-.032-5.108-2.572-3.4-1.874-7.148 1.598-8.586 4.526-1.875 6.331.345 6.5 7.995.147 6.674 1.335 8.762 5.257 9.239 5.063.616 5.088.602 4.461-2.624m-17.774-26.3c5.078-6.65 4.673-12.995-1.02-16.027-2.676-1.424-7.315-.452-8.512 1.784-1.038 1.941-.267 7.663 1.151 8.54 2.053 1.269.581 2.42-3.093 2.42-3.458 0-4.288.477-6.5 3.732-1.395 2.053-2.536 4.347-2.536 5.099 0 2.495 3.337 8.63 6.246 11.483l2.87 2.814 3.952-7.637c2.173-4.2 5.522-9.694 7.442-12.208m5.99 16.102c0-3.194-3.94-2.412-4.316.857-.286 2.488-.1 2.663 2 1.885 1.3-.48 2.316-1.684 2.316-2.742m16.392 2.015c.216-.193-.176-1.038-.872-1.876-1.97-2.374-4.02-1.842-4.02 1.043 0 2.201.321 2.469 2.25 1.876 1.237-.38 2.427-.85 2.642-1.043m16.608-.9c0-1.313-.773-2.11-2.25-2.32-1.846-.262-2.25.155-2.25 2.32s.404 2.582 2.25 2.32c1.477-.21 2.25-1.007 2.25-2.32m15.353 1.612c1.056-.669 1.103-1.326.215-2.985-1.915-3.578-4.813-2.049-3.565 1.882.694 2.186 1.317 2.391 3.35 1.103m99.147-5.063c0-6.418-2.145-12.858-5.643-16.945-7.095-8.289-17.066-12.073-31.862-12.092-9.26-.012-12.784.854-34.495 8.479-11.993 4.212-19.113 5.512-31.186 5.693-13.02.195-20.2-1.227-26.767-5.302-2.5-1.552-6.723-3.987-9.382-5.412-4.287-2.296-4.797-2.385-4.5-.78.45 2.433 15.168 9.63 24.25 11.858 14.53 3.566 35.39 1.699 50.565-4.525 3.586-1.471 9.895-3.485 14.02-4.477 4.125-.991 8.175-2.032 9-2.313 4.605-1.568 16.53-1.685 22.242-.218 8.528 2.19 17.022 11.628 19.786 21.985.66 2.475 1.36 5.062 1.555 5.75.688 2.427 2.417 1.211 2.417-1.7m-85 .51c0-2.088-2.075-3.05-3.097-1.437-1.355 2.14-1.074 2.878 1.097 2.878 1.1 0 2-.648 2-1.441m12.527-2.603c.937-1.516-1.603-4.28-2.817-3.066-1.122 1.122-.25 4.11 1.2 4.11.534 0 1.262-.47 1.617-1.044m13.473-5.397c0-1.593-1.814-3.078-2.69-2.202-.823.822.461 3.643 1.659 3.643.567 0 1.03-.648 1.03-1.441m-87-21.567c0-2.766-6.368-7.328-9.043-6.478-2.002.635-1.91.833 1.427 3.101 1.961 1.333 4.05 3.327 4.641 4.432 1.243 2.323 2.975 1.708 2.975-1.055" style="fill:#004001;fill-opacity:1;stroke:none;stroke-opacity:1" transform="matrix(.50592 .02237 -.0224 .50503 1192.157 44.984)"/></svg>